<?xml version="1.0" encoding="UTF-8"?>
<svg id="Camada_1" data-name="Camada 1" xmlns="http://www.w3.org/2000/svg" viewBox="0 0 1019.75 337.5">
  <defs>
    <style>
      .cls-1 {
        fill: #0d83d7;
      }

      .cls-2 {
        fill: #161616;
      }
    </style>
  </defs>
  <g>
    <path class="cls-2" d="M386.92,141.63h18.39l4.81,29.15v50.94h-18.39v-54.47l-4.81-25.61ZM450.73,141.06v16.13c-2.08-.57-4.34-.99-6.79-1.27-2.45-.28-4.76-.42-6.93-.42-5.19,0-9.81,1.13-13.87,3.4-4.06,2.26-7.24,5.64-9.55,10.12-2.31,4.48-3.47,9.98-3.47,16.48l-4.24-5.23c.38-5.66,1.34-10.97,2.9-15.92,1.56-4.95,3.72-9.27,6.51-12.95,2.78-3.68,6.2-6.56,10.26-8.63,4.05-2.07,8.77-3.11,14.15-3.11,1.89,0,3.82.12,5.8.35,1.98.24,3.73.59,5.24,1.06Z"/>
    <path class="cls-2" d="M503.5,223.69c-9.72,0-18.23-1.77-25.54-5.31-7.31-3.54-13.02-8.46-17.12-14.79-4.1-6.32-6.15-13.63-6.15-21.93s2.05-15.73,6.15-22c4.1-6.27,9.81-11.18,17.12-14.71,7.31-3.54,15.82-5.3,25.54-5.3s18.23,1.77,25.54,5.3c7.31,3.54,13.02,8.44,17.12,14.71,4.1,6.28,6.15,13.61,6.15,22s-2.05,15.61-6.15,21.93c-4.1,6.32-9.81,11.25-17.12,14.79-7.31,3.54-15.83,5.31-25.54,5.31ZM503.5,209.26c6.23,0,11.58-1.13,16.06-3.39,4.48-2.26,7.95-5.45,10.4-9.55,2.45-4.1,3.68-8.98,3.68-14.64s-1.23-10.54-3.68-14.64c-2.45-4.1-5.92-7.29-10.4-9.55-4.48-2.26-9.83-3.4-16.06-3.4s-11.46,1.13-15.99,3.4c-4.53,2.26-8.02,5.45-10.47,9.55-2.45,4.1-3.68,8.98-3.68,14.64s1.22,10.54,3.68,14.64c2.45,4.1,5.94,7.29,10.47,9.55s9.86,3.39,15.99,3.39Z"/>
    <path class="cls-2" d="M611.6,223.69c-9.72,0-18.23-1.77-25.54-5.31-7.31-3.54-13.02-8.46-17.12-14.79-4.1-6.32-6.15-13.63-6.15-21.93s2.05-15.73,6.15-22c4.1-6.27,9.81-11.18,17.12-14.71,7.31-3.54,15.82-5.3,25.54-5.3s18.23,1.77,25.54,5.3c7.31,3.54,13.02,8.44,17.12,14.71,4.1,6.28,6.15,13.61,6.15,22s-2.05,15.61-6.15,21.93c-4.1,6.32-9.81,11.25-17.12,14.79-7.31,3.54-15.83,5.31-25.54,5.31ZM611.6,209.26c6.23,0,11.58-1.13,16.06-3.39,4.48-2.26,7.95-5.45,10.4-9.55,2.45-4.1,3.68-8.98,3.68-14.64s-1.23-10.54-3.68-14.64c-2.45-4.1-5.92-7.29-10.4-9.55-4.48-2.26-9.83-3.4-16.06-3.4s-11.46,1.13-15.99,3.4c-4.53,2.26-8.02,5.45-10.47,9.55-2.45,4.1-3.68,8.98-3.68,14.64s1.22,10.54,3.68,14.64c2.45,4.1,5.94,7.29,10.47,9.55s9.86,3.39,15.99,3.39Z"/>
    <path class="cls-2" d="M671.59,141.63h18.39l4.81,28.86v51.22h-18.39v-53.91l-4.81-26.18ZM724.37,139.65c7.07,0,13.09,1.51,18.04,4.53,4.95,3.02,8.72,7.33,11.32,12.95,2.59,5.61,3.89,12.38,3.89,20.3v44.29h-18.39v-41.31c0-8.39-1.77-14.74-5.31-19.03-3.54-4.29-8.7-6.44-15.49-6.44-4.81,0-8.98,1.16-12.52,3.47-3.54,2.31-6.27,5.54-8.21,9.69-1.93,4.15-2.9,9.01-2.9,14.57l-6.51-3.54c.85-8.3,2.9-15.37,6.15-21.22,3.25-5.85,7.45-10.35,12.59-13.51,5.14-3.16,10.92-4.74,17.33-4.74ZM787.05,139.65c7.07,0,13.11,1.51,18.11,4.53,5,3.02,8.79,7.33,11.39,12.95,2.59,5.61,3.89,12.38,3.89,20.3v44.29h-18.39v-41.31c0-8.39-1.77-14.74-5.31-19.03-3.54-4.29-8.7-6.44-15.49-6.44-4.81,0-8.98,1.16-12.52,3.47-3.54,2.31-6.27,5.54-8.21,9.69-1.93,4.15-2.9,9.01-2.9,14.57l-6.51-3.54c.85-8.3,2.9-15.37,6.16-21.22,3.25-5.85,7.45-10.35,12.59-13.51,5.14-3.16,10.87-4.74,17.19-4.74Z"/>
    <path class="cls-2" d="M848.03,131.02c-3.49,0-6.37-.97-8.63-2.9-2.26-1.93-3.4-4.46-3.4-7.57s1.13-5.63,3.4-7.57c2.26-1.93,5.14-2.9,8.63-2.9s6.48.97,8.7,2.9c2.21,1.94,3.33,4.46,3.33,7.57s-1.11,5.64-3.33,7.57c-2.22,1.93-5.12,2.9-8.7,2.9ZM838.83,141.06l9.2,1.7,9.2-1.7v80.65h-18.39v-80.65Z"/>
    <path class="cls-2" d="M920.47,223.69c-9.34,0-17.64-1.77-24.9-5.31-7.26-3.54-12.97-8.46-17.12-14.79-4.15-6.32-6.23-13.68-6.23-22.07s1.96-15.58,5.87-21.86c3.91-6.27,9.34-11.18,16.27-14.71,6.93-3.54,14.88-5.3,23.84-5.3s16.72,2,23.28,6.01c6.55,4.01,11.62,9.65,15.21,16.91,3.58,7.27,5.38,15.8,5.38,25.61h-75.41v-14.01h66.22l-9.2,5.24c-.28-5.28-1.54-9.81-3.75-13.58-2.22-3.77-5.19-6.67-8.91-8.7-3.73-2.03-8.14-3.04-13.23-3.04-5.38,0-10.07,1.08-14.08,3.25-4.01,2.17-7.15,5.21-9.41,9.13-2.26,3.92-3.4,8.56-3.4,13.94,0,5.94,1.34,11.08,4.03,15.42,2.69,4.34,6.51,7.67,11.46,9.98,4.95,2.31,10.82,3.47,17.62,3.47,6.13,0,12.4-.96,18.82-2.9,6.41-1.93,12.07-4.64,16.98-8.13v13.3c-4.91,3.77-10.87,6.75-17.9,8.91-7.03,2.17-14.17,3.25-21.44,3.25Z"/>
  </g>
  <g>
    <path class="cls-1" d="M193.22,58.92l-43.53,23.63c-.1-4.22-.19-8.45-.29-12.67-7.72-3.66-15.45-7.31-23.19-10.96-8.04,3.42-16.11,6.82-24.15,10.23-.04-.02-.08-.03-.11-.05v39.37l-44.48,24.15,44.48,24.17,91.24,45.01v78.23l.04.02,29.45-16.01v-48.61c0-8.39,4.64-16.09,12.06-20.01.11-.06.25-.13.36-.19,10.81-5.72,23.81,2.12,23.81,14.35v34.75l25.54-13.89v-73.43l29.23-15.84,15.24-8.56L193.22,58.92Z"/>
    <g>
      <polygon class="cls-1" points="193.19 201.8 193.19 280.03 101.95 230.44 101.95 156.79 193.19 201.8"/>
      <path class="cls-1" d="M101.95,68.99c8.09-3.84,16.18-7.68,24.27-11.53,7.73,4.1,15.46,8.19,23.19,12.29-7.58,4.27-15.17,8.55-22.75,12.82-8.23-4.53-16.47-9.06-24.7-13.59Z"/>
      <path class="cls-1" d="M258.99,209.16v34.75l-20.1-9.92-16.13-7.95v-11.04c0-8.39,4.64-16.09,12.06-20.01.11-.06.25-.13.36-.19,10.81-5.72,23.81,2.12,23.81,14.35Z"/>
    </g>
  </g>
</svg>