<?xml version="1.0" encoding="UTF-8"?>
<svg id="Camada_1" data-name="Camada 1" xmlns="http://www.w3.org/2000/svg" viewBox="0 0 371.53 322.66">
  <defs>
    <style>
      .cls-1 {
        fill: #f2f2f2;
      }
    </style>
  </defs>
  <path class="cls-1" d="M185.8,51.5l-43.53,23.63c-.1-4.22-.19-8.45-.29-12.67-7.72-3.66-15.45-7.31-23.19-10.96-8.04,3.42-16.11,6.82-24.15,10.23-.04-.02-.08-.03-.11-.05v39.37l-44.48,24.15,44.48,24.17,91.24,45.01v78.23l.04.02,29.45-16.01v-48.61c0-8.39,4.64-16.09,12.06-20.01.11-.06.25-.13.36-.19,10.81-5.72,23.81,2.12,23.81,14.35v34.75l25.54-13.89v-73.43l29.23-15.84,15.24-8.56L185.8,51.5Z"/>
  <g>
    <polygon class="cls-1" points="185.76 194.38 185.76 272.61 94.53 223.02 94.53 149.36 185.76 194.38"/>
    <path class="cls-1" d="M94.53,61.57c8.09-3.84,16.18-7.68,24.27-11.53,7.73,4.1,15.46,8.19,23.19,12.29-7.58,4.27-15.17,8.55-22.75,12.82-8.23-4.53-16.47-9.06-24.7-13.59Z"/>
    <path class="cls-1" d="M251.57,201.74v34.75l-20.1-9.92-16.13-7.95v-11.04c0-8.39,4.64-16.09,12.06-20.01.11-.06.25-.13.36-.19,10.81-5.72,23.81,2.12,23.81,14.35Z"/>
  </g>
</svg>